<?xml version="1.0" encoding="UTF-8"?>
<svg id="Layer_2" data-name="Layer 2" xmlns="http://www.w3.org/2000/svg" viewBox="0 0 84 84">
  <defs>
    <style>
      .cls-1 {
        fill: #fff;
      }
    </style>
  </defs>
  <g id="Layer_1-2" data-name="Layer 1">
    <g>
      <rect x="36.21" y="16.5" width="33.86" height="66.43"/>
      <path class="cls-1" d="m74,0H10C4.48,0,0,4.48,0,10v64c0,5.52,4.48,10,10,10h64c5.52,0,10-4.48,10-10V10c0-5.52-4.48-10-10-10Zm-8,30h-4c-4.28,0-6,1-6,4v6h10l-2,10h-8v30h-10v-30h-8v-10h8v-6c0-8,4-14,12-14,5.8,0,8,2,8,2v8Z"/>
    </g>
  </g>
</svg>