<?xml version="1.0" encoding="UTF-8"?>
<svg id="Layer_2" data-name="Layer 2" xmlns="http://www.w3.org/2000/svg" viewBox="0 0 78.12 78.12">
  <defs>
    <style>
      .cls-1 {
        fill: #fff;
      }
    </style>
  </defs>
  <g id="Layer_1-2" data-name="Layer 1">
    <g>
      <rect x="18.71" y="9.71" width="48.43" height="52.29"/>
      <path class="cls-1" d="m22.78,0C10.22,0,0,10.23,0,22.79v32.55c0,12.56,10.23,22.78,22.79,22.78h32.55c12.56,0,22.78-10.23,22.78-22.79V22.78c0-12.56-10.23-22.78-22.79-22.78H22.78Zm39.72,12.5c1.73,0,3.12,1.4,3.12,3.12s-1.4,3.12-3.12,3.12-3.12-1.4-3.12-3.12,1.4-3.12,3.12-3.12Zm-23.44,6.25c11.2,0,20.31,9.11,20.31,20.31s-9.11,20.31-20.31,20.31-20.31-9.11-20.31-20.31,9.11-20.31,20.31-20.31Zm0,6.25c-7.77,0-14.06,6.3-14.06,14.06s6.3,14.06,14.06,14.06,14.06-6.3,14.06-14.06-6.3-14.06-14.06-14.06Z"/>
    </g>
  </g>
</svg>