<?xml version="1.0" encoding="UTF-8"?>
<svg id="Layer_2" data-name="Layer 2" xmlns="http://www.w3.org/2000/svg" viewBox="0 0 84.43 84.86">
  <defs>
    <style>
      .cls-1 {
        fill: #fff;
      }
    </style>
  </defs>
  <g id="Layer_1-2" data-name="Layer 1">
    <g>
      <rect class="cls-1" width="84.43" height="84.86" rx="8.14" ry="8.14"/>
      <path d="m51.42,21.92c-5.98,0-10.84,4.86-10.84,10.84,0,.36.09.71.12,1.06-7.39-.71-13.93-4.27-18.37-9.71-.21-.26-.53-.4-.86-.38-.33.02-.63.21-.79.5-.93,1.6-1.47,3.45-1.47,5.43,0,2.4.86,4.6,2.19,6.4-.26-.11-.54-.18-.78-.31-.31-.16-.68-.16-.98.02-.3.18-.48.5-.49.85v.12c0,3.68,1.91,6.88,4.72,8.84-.03,0-.06,0-.09,0-.34-.06-.69.06-.92.32s-.3.62-.2.96c1.12,3.47,3.97,6.12,7.5,7.09-2.81,1.67-6.07,2.65-9.59,2.65-.76,0-1.49-.04-2.22-.12-.47-.06-.92.21-1.07.66-.16.45.02.94.42,1.19,4.51,2.89,9.86,4.59,15.62,4.59,9.33,0,16.64-3.9,21.55-9.46s7.46-12.8,7.46-19.55c0-.29-.02-.56-.03-.84,1.83-1.4,3.47-3.05,4.75-4.97.25-.37.23-.87-.07-1.21-.29-.34-.78-.45-1.18-.26-.52.23-1.12.25-1.66.44.71-.95,1.32-1.97,1.69-3.12.12-.39-.01-.83-.34-1.09-.32-.25-.78-.29-1.13-.07-1.71,1.01-3.6,1.72-5.59,2.16-1.94-1.81-4.49-3.03-7.34-3.03Zm0,2c2.55,0,4.85,1.09,6.47,2.81.24.25.6.36.94.28,1.3-.26,2.54-.64,3.75-1.12-.69.94-1.55,1.74-2.56,2.34-.46.22-.67.75-.5,1.23.16.48.66.75,1.16.64,1-.12,1.89-.53,2.84-.78-.86.93-1.79,1.76-2.81,2.5-.28.2-.43.53-.41.87.02.41.03.81.03,1.22,0,6.25-2.4,13.03-6.97,18.21-4.57,5.18-11.28,8.81-20.05,8.81-3.99,0-7.75-.88-11.15-2.44,4.22-.32,8.11-1.82,11.24-4.28.33-.26.46-.7.32-1.1s-.5-.67-.92-.68c-3.3-.06-6.06-1.98-7.53-4.69h.16c.99,0,1.96-.12,2.87-.37.44-.13.74-.53.72-.99s-.34-.85-.78-.94c-3.56-.72-6.22-3.62-6.84-7.22,1.01.35,2.04.62,3.15.66.46.03.87-.26,1.01-.69s-.03-.91-.42-1.15c-2.37-1.59-3.94-4.29-3.94-7.37,0-1.14.3-2.19.69-3.19,5,5.49,11.99,9.13,19.9,9.53.31.02.62-.11.82-.35.2-.24.28-.56.21-.87-.15-.65-.25-1.34-.25-2.03,0-4.9,3.94-8.84,8.84-8.84Z"/>
    </g>
  </g>
</svg>