<?xml version="1.0" encoding="UTF-8"?>
<svg id="Layer_2" data-name="Layer 2" xmlns="http://www.w3.org/2000/svg" viewBox="0 0 84.43 84.86">
  <defs>
    <style>
      .cls-1 {
        fill: #fff;
      }
    </style>
  </defs>
  <g id="Layer_1-2" data-name="Layer 1">
    <g>
      <rect class="cls-1" width="84.43" height="84.86" rx="8.14" ry="8.14"/>
      <path d="m67.21,26.92c-1.84.82-3.82,1.37-5.9,1.62,2.12-1.27,3.75-3.28,4.51-5.67-1.98,1.17-4.18,2.03-6.52,2.49-1.87-2-4.54-3.24-7.49-3.24-5.67,0-10.26,4.59-10.26,10.26,0,.8.09,1.59.27,2.34-8.53-.43-16.08-4.51-21.14-10.72-.88,1.52-1.39,3.28-1.39,5.16,0,3.56,1.81,6.7,4.56,8.54-1.68-.05-3.27-.52-4.65-1.29v.13c0,4.97,3.54,9.11,8.23,10.06-.86.23-1.77.36-2.7.36-.66,0-1.31-.06-1.93-.19,1.31,4.07,5.1,7.05,9.58,7.13-3.51,2.75-7.93,4.39-12.74,4.39-.83,0-1.64-.05-2.44-.14,4.54,2.91,9.93,4.61,15.72,4.61,18.87,0,29.19-15.63,29.19-29.18,0-.44-.01-.89-.03-1.33,2-1.45,3.74-3.25,5.12-5.31Z"/>
    </g>
  </g>
</svg>